Patient4_TMGait_0pt7_01_left_38_EMG.mot
version=1
nRows=20
nColumns=33
inDegrees=no
endheader
time	1LAddLong	2LGlutMax	3LGlutMed	4LIliopsoas	5LSemiMemb	6LBicFemLong	7LRecFem	8LVastMed	9LVastLat	10LGasMed	11LTibAnt	12lTibPost	13LPeroneusLong	14LSol	15LExtDigLong	16LFlexDigLong	17RAddLong	18RGlutMax	19RGlutMed	20RIliopsoas	21RSemiMemb	22RBicFemLong	23RRecFem	24RVastMed	25RVastLat	26RGasMed	27RTibAnt	28RTibPost	29RPeroneusLong	30RSol	31RExtDigLong	32RFlexDigLong
44.775	-0.002289	-0.018005	-0.088196	0.02594	-0.02655	-0.019379	-0.1915	0.002441	0.002289	-0.31799	0.022583	0.067444	0.060577	0.30701	-0.03006	0.023956	0.077362	-0.18601	0.39627	-0.052185	0.77972	0.2005	0.029449	0.24826	-0.016785	0.003815	-0.083466	-0.011139	0.28519	0.2092	0.005188	-0.013733
44.776	-0.000763	0.003815	-0.065002	0.007477	-0.031433	0.052032	-0.21194	0.00824	0.016479	-0.089111	0.014648	-0.0914	0.27191	0.14084	0.009766	0.001678	0.095825	-0.16296	0.42313	-0.083008	0.85495	0.001678	0.013733	0.24506	0.10666	0.006409	-0.11566	-0.008545	-0.11673	0.22492	-0.001373	-0.010376
44.777	-0.002899	0.037384	0.032501	0.001526	-0.026245	0.0383	-0.2211	-0.005035	0.007629	0.34714	0.010223	-0.029602	0.00946	-0.005646	0.024109	-0.65323	0.11505	-0.10468	0.41046	-0.06134	0.92407	-0.24628	-0.04776	0.15274	0.13458	0.004578	-0.25787	-0.005341	-0.063477	0.30823	-0.003357	-0.004272
44.778	-0.002441	0.067596	0.13351	0.016479	-0.042572	-0.007782	-0.23911	0.003662	0.006256	0.38361	0.014496	-0.062408	0.093994	-0.22461	0.000458	0.20859	0.098419	-0.052032	0.35019	-0.01709	0.8699	-0.17792	-0.077972	-0.13733	0.093536	0.002899	-0.29159	-0.017242	0.18723	0.30472	-0.00824	-0.007782
44.779	0.005493	0.092468	0.14008	0.00946	-0.036316	-0.06134	-0.22751	0.011139	0.002136	-0.03418	0.014648	-0.13596	0.88272	-0.067596	0.012512	0.07309	-0.018616	-0.037689	0.30762	0.059052	0.2594	0.096283	0.045471	-0.38956	0.10849	-0.002441	-0.21622	-0.007629	0.10178	0.19699	-0.011749	-0.004425
44.78	0.011139	0.12543	0.19775	-0.005188	-0.021057	0.02594	-0.24536	0.002441	0.006561	-0.009003	0.01297	0.058899	0.96008	0.36545	-0.003967	-0.29053	-0.058746	-0.035553	0.21484	0.070496	0.3447	0.18387	0.11093	-0.061951	0.036011	-0.007935	-0.13412	-0.009918	0.001984	0.16357	-0.001373	0.004883
44.781	0.007629	0.14069	0.22827	0.007629	0.004425	0.13702	-0.24658	0.010986	-0.01709	0.50903	0.043945	0.30273	0.082092	0.21957	0.026245	0.27817	-0.04715	0.052643	0.035858	0.054779	0.29511	0.27634	0.035553	0.27588	-0.038147	-0.00885	0.06073	-0.010529	-0.016785	0.11597	-0.001221	-0.001831
44.782	0.006104	0.11902	0.26398	-0.003204	0.012512	0.066681	-0.22385	0.007477	-0.038452	0.61874	0.070801	0.20508	-0.69687	0.41214	0.045319	0.010071	-0.083466	0.010529	0.051575	-0.070496	0.75913	0.35812	-0.12375	0.37201	0.037994	-0.007019	0.10468	-0.00473	-0.004272	0.06073	-0.00412	-0.009918
44.783	0.002747	0.14572	0.24628	-0.005798	0.062561	0.041199	-0.23575	0.007935	-0.032043	0.28656	-0.020142	-0.085297	0.06012	0.37643	-0.023499	-0.022583	-0.056458	-0.009918	-0.057831	-0.23148	0.82245	0.35431	-0.392	0.30746	0.14771	-0.002289	0.045319	-0.006714	-0.11108	0.036774	0.000458	-0.010681
44.784	0.003815	0.15152	0.23438	-0.007019	0.062103	0.025787	-0.25696	0.00351	-0.040131	-0.063934	-0.037384	-0.11032	-0.23254	0.36697	-0.025635	0.026245	-0.016174	0.015411	0.016785	-0.21072	0.50919	0.4187	-0.86227	0.30762	0.32501	0.000153	0.041809	-0.000153	-0.062256	-0.012817	-0.003662	-0.011139
44.785	0.001068	0.14084	0.27344	0.006561	0.052948	0.027924	-0.26489	0.001068	-0.038147	-0.35645	0.00946	-0.17105	-0.33814	0.020905	0.038605	0.038757	0.016785	-0.003815	0.21179	-0.028381	0.29831	0.33142	-0.96268	0.36026	0.42786	0.00061	0.046692	-0.009308	0.010223	-0.036774	-0.001068	-0.012665
44.786	-0.000916	0.13794	0.35767	0.014954	0.046692	0.043793	-0.27115	0.007324	-0.034637	0.001221	0.014954	0.056	-0.21301	-0.69305	-0.034485	0.050659	0.11185	-0.06073	0.43167	0.054016	0.62897	0.097961	-0.85022	0.11993	0.48996	-0.003204	0.048523	-0.006714	0.005035	-0.03952	-0.003357	0.000305
44.787	0.001831	0.15228	0.392	-0.006561	-0.03479	0.023346	-0.28717	0.007477	-0.02182	0.1442	0.015564	0.084991	0.12207	-0.50369	-0.058289	0.022736	0.18356	-0.077515	0.28503	0.22644	0.64651	0.070038	-0.78873	-0.25986	0.3125	0.000305	0.077667	-0.006409	-0.13825	-0.026245	-0.003357	-0.000916
44.788	0.00412	0.14114	0.39352	0.014801	-0.002747	-0.031281	-0.28976	0.001221	-0.027924	-0.2211	-0.007782	-0.22293	0.034637	-0.71701	-0.065918	-0.000305	0.11887	-0.099182	0.12833	0.30014	0.39017	0.21332	-0.72342	-0.55985	0.20523	-0.006866	0.094147	-0.005341	-0.12009	-0.072021	0.000305	-0.002594
44.789	-0.001373	0.13504	0.40253	0.005493	0.00351	-0.031433	-0.31403	-0.00061	-0.011139	-0.14969	0.033875	0.061493	0.11032	-1.1716	0.027924	-0.081635	0.021057	-0.005341	0.018158	0.12894	-0.26825	0.46875	-0.54733	-0.63156	0.19058	-0.013275	0.097198	-0.010529	-0.075378	-0.050507	-0.000763	0.000153
44.79	0.003204	0.14023	0.43671	-0.023041	0.037079	0.039215	-0.31372	0.002136	-0.033569	-0.014191	0.002289	0.12772	0.32288	-1.2183	0.070648	-0.46158	-0.11429	0.14084	0.32852	-0.061798	-0.64377	0.69656	-0.37582	-0.5339	0.000458	-0.009918	0.096283	-0.000305	0.20325	-0.041351	-0.001678	-0.010071
44.791	-0.002289	0.10559	0.49301	-0.016785	0.018311	0.098114	-0.31632	-0.00061	-0.036621	0.15411	-0.009918	-0.10468	0.4248	-0.33341	0.06073	0.33859	-0.21668	0.067902	0.50415	-0.1001	0.10452	0.68542	-0.32623	-0.25253	0.068512	-0.007324	0.11429	-0.001221	0.00473	-0.037689	-0.000153	-0.016479
44.792	-0.006561	0.05661	0.3772	-0.022125	-0.003662	0.077362	-0.31296	0.005798	-0.046082	-0.007019	0.009766	-0.11276	-0.27741	0.68893	0.026398	0.16144	-0.2182	-0.14084	0.2449	-0.031433	0.82382	0.62988	-0.33829	0.58243	0.35156	-0.009613	0.13855	-0.002747	0.050049	-0.050201	-0.00412	-0.008392
44.793	0.008087	0.049133	0.38055	-0.011444	-0.011444	0.029602	-0.34759	-0.007629	-0.033264	-0.43686	0.019684	-0.052948	-0.45959	1.2769	-0.007477	-0.52963	-0.15305	-0.3212	0.029297	-0.011292	0.82367	0.72327	-0.27374	0.88821	0.3537	-0.009918	0.1236	-0.000916	0.35812	-0.049438	-0.00885	-0.008545
44.794	0.007172	0.063019	0.44784	-0.019531	-0.02655	0.005951	-0.35523	0.007782	-0.03418	-0.64865	-0.001678	0.38254	-0.20844	1.5144	-0.016479	0.054169	-0.041656	-0.25635	-0.046539	0	0.61554	0.66834	-0.16098	0.81482	0.29511	0.004883	0.099792	0.000763	0.090485	-0.043793	-0.000916	-0.00885
